<svg width="28" height="33" viewBox="0 0 28 33" fill="none" xmlns="http://www.w3.org/2000/svg">
    <path d="M27.7399 14.1901C25.875 12.2675 23.4859 10.9356 20.8699 10.3601C18.9494 9.87737 16.9799 9.61567 14.9999 9.58007V4.28007C14.9686 3.38172 14.5828 2.53233 13.9269 1.91767C13.271 1.303 12.3984 0.973085 11.4999 1.00007C10.6014 0.973085 9.72884 1.303 9.07294 1.91767C8.41705 2.53233 8.03126 3.38172 7.99994 4.28007V14.2801L6.39994 12.7001C5.69512 12.0087 4.74723 11.6214 3.75994 11.6214C2.77264 11.6214 1.82475 12.0087 1.11994 12.7001C0.766809 13.0412 0.485732 13.4498 0.29335 13.9015C0.100969 14.3533 0.00119429 14.8391 -6.40728e-05 15.3301C-0.0183996 16.2821 0.341168 17.2026 0.999936 17.8901L5.65994 23.4101C5.88475 24.8205 6.36965 26.1768 7.08994 27.4101C7.61619 28.3584 8.29147 29.216 9.08994 29.9501V31.8701C9.08679 32.1438 9.18872 32.4084 9.37474 32.6093C9.56076 32.8102 9.81672 32.9322 10.0899 32.9501H23.9999C24.2731 32.9322 24.5291 32.8102 24.7151 32.6093C24.9012 32.4084 25.0031 32.1438 24.9999 31.8701V29.1701C26.9649 26.8304 28.0289 23.8653 27.9999 20.8101V14.8101C27.9874 14.5796 27.8956 14.3605 27.7399 14.1901ZM25.9999 20.8601C26.0638 23.5188 25.1372 26.1064 23.3999 28.1201C23.1792 28.2999 23.036 28.5577 22.9999 28.8401V31.0001H11.1399V29.5201C11.1402 29.3563 11.1002 29.1949 11.0235 29.0502C10.9467 28.9055 10.8356 28.7818 10.6999 28.6901C9.95052 28.0757 9.33169 27.3174 8.87994 26.4601C8.24294 25.3814 7.83448 24.1832 7.67994 22.9401C7.66921 22.7237 7.58849 22.5166 7.44994 22.3501L2.52994 16.5301C2.36969 16.3719 2.24245 16.1835 2.15561 15.9758C2.06877 15.7681 2.02405 15.5452 2.02405 15.3201C2.02405 15.0949 2.06877 14.872 2.15561 14.6643C2.24245 14.4566 2.36969 14.2682 2.52994 14.1101C2.8592 13.7858 3.30279 13.604 3.76494 13.604C4.22708 13.604 4.67068 13.7858 4.99994 14.1101L7.99994 17.1101V20.2501L9.99994 19.2501V4.28007C10.0355 3.91399 10.2117 3.576 10.4915 3.33725C10.7713 3.0985 11.1328 2.97762 11.4999 3.00007C11.8671 2.97762 12.2286 3.0985 12.5083 3.33725C12.7881 3.576 12.9644 3.91399 12.9999 4.28007V16.0801L14.9999 16.5101V11.5901C15.8392 11.6066 16.6769 11.6667 17.5099 11.7701V17.0001L19.1099 17.3501V12.0001C19.5199 12.0801 19.9399 12.1701 20.3699 12.2801C20.8884 12.4157 21.3991 12.5793 21.8999 12.7701V17.9201L23.4999 18.2701V13.5001C24.4089 13.9589 25.2502 14.5411 25.9999 15.2301V20.8601Z" fill="white"/>
</svg>
