<svg width="28" height="33" viewBox="0 0 28 33" fill="none" xmlns="http://www.w3.org/2000/svg">
<path d="M27.7401 14.1901C25.8751 12.2675 23.486 10.9356 20.8701 10.3601C18.9495 9.87737 16.98 9.61567 15.0001 9.58007V4.28007C14.9687 3.38172 14.5829 2.53233 13.9271 1.91767C13.2712 1.303 12.3985 0.973085 11.5001 1.00007C10.6016 0.973085 9.72896 1.303 9.07307 1.91767C8.41717 2.53233 8.03138 3.38172 8.00006 4.28007V14.2801L6.40006 12.7001C5.69525 12.0087 4.74735 11.6214 3.76006 11.6214C2.77277 11.6214 1.82487 12.0087 1.12006 12.7001C0.766931 13.0412 0.485854 13.4498 0.293472 13.9015C0.101091 14.3533 0.00131637 14.8391 5.79975e-05 15.3301C-0.0182776 16.2821 0.34129 17.2026 1.00006 17.8901L5.66006 23.4101C5.88487 24.8205 6.36977 26.1768 7.09006 27.4101C7.61631 28.3584 8.29159 29.216 9.09006 29.9501V31.8701C9.08691 32.1438 9.18884 32.4084 9.37486 32.6093C9.56089 32.8102 9.81684 32.9322 10.0901 32.9501H24.0001C24.2733 32.9322 24.5292 32.8102 24.7153 32.6093C24.9013 32.4084 25.0032 32.1438 25.0001 31.8701V29.1701C26.9651 26.8304 28.0291 23.8653 28.0001 20.8101V14.8101C27.9875 14.5796 27.8957 14.3605 27.7401 14.1901ZM26.0001 20.8601C26.064 23.5188 25.1373 26.1064 23.4001 28.1201C23.1793 28.2999 23.0361 28.5577 23.0001 28.8401V31.0001H11.1401V29.5201C11.1403 29.3563 11.1003 29.1949 11.0236 29.0502C10.9469 28.9055 10.8358 28.7818 10.7001 28.6901C9.95064 28.0757 9.33181 27.3174 8.88006 26.4601C8.24306 25.3814 7.8346 24.1832 7.68006 22.9401C7.66933 22.7237 7.58861 22.5166 7.45006 22.3501L2.53006 16.5301C2.36981 16.3719 2.24258 16.1835 2.15573 15.9758C2.06889 15.7681 2.02417 15.5452 2.02417 15.3201C2.02417 15.0949 2.06889 14.872 2.15573 14.6643C2.24258 14.4566 2.36981 14.2682 2.53006 14.1101C2.85932 13.7858 3.30292 13.604 3.76506 13.604C4.2272 13.604 4.6708 13.7858 5.00006 14.1101L8.00006 17.1101V20.2501L10.0001 19.2501V4.28007C10.0356 3.91399 10.2119 3.576 10.4917 3.33725C10.7714 3.0985 11.1329 2.97762 11.5001 3.00007C11.8672 2.97762 12.2287 3.0985 12.5085 3.33725C12.7882 3.576 12.9645 3.91399 13.0001 4.28007V16.0801L15.0001 16.5101V11.5901C15.8393 11.6066 16.6771 11.6667 17.5101 11.7701V17.0001L19.1101 17.3501V12.0001C19.5201 12.0801 19.9401 12.1701 20.3701 12.2801C20.8885 12.4157 21.3993 12.5793 21.9001 12.7701V17.9201L23.5001 18.2701V13.5001C24.4091 13.9589 25.2503 14.5411 26.0001 15.2301V20.8601Z" fill="#B0B2BB"/>
</svg>
